<svg xmlns="http://www.w3.org/2000/svg" class="icon icon-tabler icon-tabler-speakerphone" width="250px" height="250px" viewBox="0 0 24 24" stroke-width="1.00" stroke="rgba(1, 1, 1, 1)" fill="none" stroke-linecap="round" stroke-linejoin="round"><circle cx="50%" cy="50%" r="50%" stroke="none" stroke-width="0" fill="rgba(255, 255, 255, 1)"/><g transform="translate(2.40, 2.40) scale(0.8)"><path stroke="none" d="M0 0h24v24H0z" fill="none"/><path d="M18 8a3 3 0 0 1 0 6"/><path d="M10 8v11a1 1 0 0 1 -1 1h-1a1 1 0 0 1 -1 -1v-5"/><path d="M12 8h0l4.524 -3.77a0.9 .9 0 0 1 1.476 .692v12.156a0.9 .9 0 0 1 -1.476 .692l-4.524 -3.77h-8a1 1 0 0 1 -1 -1v-4a1 1 0 0 1 1 -1h8"/></g>
  
  
  
  
</svg>